<svg id="Layer_1" data-name="Layer 1" xmlns="http://www.w3.org/2000/svg" viewBox="0 0 200 200"><defs><style>.cls-1{fill:#fff;}</style></defs><title>logo</title><path class="cls-1" d="M190,45.41a72.19,72.19,0,0,1-20.74,5.69,36.21,36.21,0,0,0,15.88-20,72.3,72.3,0,0,1-22.93,8.76,36.14,36.14,0,0,0-61.53,32.93A102.52,102.52,0,0,1,26.21,35.09,36.15,36.15,0,0,0,37.38,83.3,36,36,0,0,1,21,78.78c0,.15,0,.3,0,.45a36.13,36.13,0,0,0,29,35.41,36.2,36.2,0,0,1-16.31.62,36.15,36.15,0,0,0,33.73,25.08A72.45,72.45,0,0,1,22.57,155.8a73.51,73.51,0,0,1-8.61-.5,102.21,102.21,0,0,0,55.35,16.22c66.42,0,102.74-55,102.74-102.74q0-2.35-.1-4.67A73.39,73.39,0,0,0,190,45.41Z"/></svg>